<svg width="220" height="139" viewBox="0 0 220 139" xmlns="http://www.w3.org/2000/svg" xmlns:xlink="http://www.w3.org/1999/xlink"><title>8273312B-17C8-4446-81D5-CE92410441BA</title><defs><path d="M65.79.338s-1.118 6.482-5.78 8.964c2.696 1.493 7.946 1.452 7.946 1.452s-5.038 3.365-10.777 4.648c-1.172-2.085-2.047-4.2-2.992-7.86l-.204-.797-.66.49c-1.98 1.468-3.763 2.636-5.494 3.56-.393-1.785-1.088-3.433-2.197-5.596C53.894 9.162 65.79.338 65.79.338zM2.166.339S14.062 9.164 22.323 5.2c-1.108 2.164-1.803 3.813-2.197 5.597-1.73-.923-3.513-2.092-5.493-3.56l-.66-.49-.204.797c-.945 3.66-1.82 5.775-2.992 7.86C5.037 14.121 0 10.755 0 10.755s5.25.041 7.946-1.452C3.284 6.822 2.166.339 2.166.339zm45.867 11.608c1.685-.875 3.403-1.97 5.292-3.337.847 3.135 1.67 5.115 2.713 7.015.528.96 1.108 1.899 1.788 2.956-8.012 6.15-20.242 6.637-23.848 6.637h-.007c-3.603 0-15.827-.486-23.841-6.637a50.221 50.221 0 0 0 1.788-2.956c1.042-1.9 1.86-3.88 2.712-7.013 1.886 1.367 3.608 2.46 5.29 3.335 4.28 2.233 8.296 3.012 14.058 3.012 5.76 0 9.777-.779 14.055-3.012zM37.65 19.664a2.42 2.42 0 0 1-.192.007c-.158 0-.29-.02-.395-.057a.6.6 0 0 1-.33-.277c-.075-.132-.125-.348-.148-.641l-.1-1.195-.902.073.095 1.154c.053.647.226 1.1.523 1.363.295.262.747.368 1.355.318.425-.036.767-.129 1.028-.277l.152 1.84.896-.075-.382-4.63-.899.077.176 2.09a2.38 2.38 0 0 1-.877.23zm-16.353 1.124l.016.001c.256 0 .544-.037.868-.109l.22-.814c-.389.093-.704.143-.946.153-.24.011-.484-.017-.729-.084a1.944 1.944 0 0 1-.811-.426 1.478 1.478 0 0 1-.447-.713 1.609 1.609 0 0 1 .006-.861c.078-.293.22-.54.427-.743.204-.2.453-.333.743-.395.292-.063.596-.05.913.036.256.066.489.168.704.303.214.13.436.315.67.549l.218-.817a3.971 3.971 0 0 0-.706-.505 3.244 3.244 0 0 0-.723-.288c-.48-.13-.935-.15-1.371-.06a2.308 2.308 0 0 0-1.777 1.718 2.29 2.29 0 0 0 .005 1.249c.117.41.336.76.656 1.05.32.288.716.495 1.187.623.324.088.616.133.877.133zm25.584-5.054l-1.98 3.859-.798-3.148-.849.216 1.153 4.532.446-.114 2.003-3.778.772 3.035.852-.222-1.142-4.498-.457.118zm-17.844 6.358a2.9 2.9 0 0 0 .276.012c.377 0 .73-.07 1.055-.207a2.335 2.335 0 0 0 1.416-1.96 2.353 2.353 0 0 0-.237-1.254 2.283 2.283 0 0 0-.841-.93 2.772 2.772 0 0 0-1.263-.406c-.499-.043-.947.023-1.345.198a2.25 2.25 0 0 0-.973.794 2.33 2.33 0 0 0-.427 1.168c-.038.437.037.848.224 1.232.188.379.466.692.841.933.372.24.797.38 1.274.42z" id="a"/><mask id="b" x="0" y="0" width="67.956" height="24.88" fill="#fff"><use xlink:href="#a"/></mask></defs><g fill="none" fill-rule="evenodd"><path d="M97.982 103.643c1.437-1.315 2.342-1.853 2.709-1.619.087.07.15.168.188.304.182.641-.322 1.584-1.512 2.831-1.563 1.583-3.033 2.374-4.408 2.374-.167 0-.306-.018-.416-.05.968-1.315 2.113-2.594 3.439-3.84m118.873 5.507c-2.414 2.73-3.643 4.13-3.691 4.196-1.895 1.952-3.204 2.777-3.926 2.474a.516.516 0 0 1-.354-.352c-.123-.438.293-1.567 1.254-3.385 1.597-3 3.992-6.502 7.18-10.513-1.136-.101-1.995.068-2.575.504-1.595 1.113-3.515 3.337-5.755 6.672-1.42 2.088-2.582 3.607-3.488 4.548-1.944 2.022-3.314 2.865-4.115 2.526a.564.564 0 0 1-.366-.404c-.125-.436.283-1.549 1.217-3.333 1.503-2.864 4.091-6.268 7.77-10.209-1.236-.102-2.22.1-2.948.607-2.163 1.481-4.123 3.555-5.886 6.215a19.49 19.49 0 0 0-.728 1.197c-1.97 2.233-2.99 3.392-3.033 3.453-1.892 1.952-3.203 2.777-3.926 2.474-.186-.066-.304-.182-.35-.352-.126-.438.292-1.567 1.25-3.385 1.598-3 3.992-6.502 7.182-10.513-1.137-.101-1.994.068-2.572.504-1.6 1.113-3.517 3.337-5.757 6.672-1.42 2.088-2.583 3.607-3.49 4.548-1.94 2.022-3.314 2.865-4.115 2.526a.561.561 0 0 1-.364-.404c-.125-.436.28-1.549 1.215-3.333 1.503-2.864 4.091-6.268 7.772-10.209-1.237-.102-2.22.1-2.95.607-2.161 1.481-4.123 3.555-5.883 6.215a18.67 18.67 0 0 0-.668 1.088c-1.123 1.25-2.101 2.36-2.914 3.308-1.546 1.415-2.57 2.124-3.07 2.124-.538 0-.903-.338-1.095-1.013-.22-.773-.297-1.984-.227-3.637.131-2.493.531-4.33 1.204-5.509 1.548-1.516 3.205-2.24 4.968-2.174.513.034.975.186 1.386.456.67.473 1.059.707 1.16.707.365-.134.53-.437.496-.909-.064-1.043-.7-1.634-1.912-1.768-1.87-.204-4.447 1.112-7.738 3.942-2.364 2.188-3.953 3.737-4.768 4.648a72.134 72.134 0 0 1 5.517-8.742c-1.747-.136-2.882.186-3.4.96a35.553 35.553 0 0 0-2.807 3.941 55.77 55.77 0 0 0-1.66 2.875c-.21-.158-.398-.124-.562.107-1.862 2.19-3.415 3.808-4.662 4.851-1.655 1.383-3.087 2.072-4.293 2.072-.736 0-1.199-.32-1.38-.959-.422-1.484.526-3.756 2.844-6.823 3.103-4.075 5.209-6.115 6.317-6.115.368 0 .614.218.738.657.232.81-.265 1.667-1.481 2.578-.941.706-1.34 1.313-1.196 1.818.116.406.392.606.827.606.402 0 .822-.234 1.26-.707.67-.708 1.097-1.567 1.279-2.578.112-.672.1-1.245-.034-1.717-.25-.877-.86-1.314-1.832-1.314-1.142 0-2.548.55-4.216 1.643a18.587 18.587 0 0 0-4.359 3.966c-1.142 1.448-1.866 2.83-2.198 4.146a168.21 168.21 0 0 0-1.86 2.122c-1.894 1.952-3.205 2.777-3.927 2.474-.185-.066-.304-.182-.352-.352-.125-.438.293-1.567 1.254-3.385 1.597-3 3.992-6.502 7.181-10.513-1.136-.101-1.994.068-2.574.504-1.597 1.113-3.533 3.337-5.806 6.672-1.943 2.022-3.314 2.865-4.113 2.526-.752-.168-1.274-.942-1.567-2.322 1.798-3.235 3.627-5.661 5.484-7.28-1.544 0-2.643.27-3.294.811-1.06.874-2.217 2.24-3.47 4.093a45.1 45.1 0 0 0-1.588 2.545c-.012.011-.026.018-.042.03-2.413 2.73-3.644 4.13-3.692 4.197-1.894 1.952-3.203 2.777-3.926 2.474a.516.516 0 0 1-.354-.352c-.122-.438.296-1.567 1.254-3.385 1.598-3 3.992-6.502 7.182-10.513-1.137-.101-1.994.068-2.574.504-1.598 1.113-3.515 3.337-5.755 6.672-1.421 2.088-2.583 3.607-3.49 4.548-1.943 2.022-3.314 2.865-4.115 2.526a.561.561 0 0 1-.364-.404c-.127-.436.28-1.549 1.215-3.333 1.503-2.864 4.091-6.268 7.77-10.209-1.235-.102-2.22.1-2.948.607-2.163 1.481-4.123 3.555-5.884 6.215a19.89 19.89 0 0 0-.804 1.336 39.57 39.57 0 0 1-3.708 3.87c-1.544 1.414-2.736 2.121-3.572 2.121-.37 0-.603-.168-.697-.507-.134-.468.226-1.354 1.081-2.65a49.091 49.091 0 0 1 2.89-3.916c2.292-2.798 3.267-4.804 2.922-6.015-.114-.403-.373-.757-.779-1.06-.404-.305-.825-.455-1.261-.455-1.342 0-3.587 1.312-6.733 3.941.448-.911.556-1.768.327-2.578-.201-.709-.656-1.129-1.366-1.263-2.22-.371-5.668 1.905-10.343 6.822 1.507-2.73 3.257-4.953 5.253-6.671-1.51 0-2.592.27-3.244.81-1.198.976-2.372 2.34-3.517 4.093a49.826 49.826 0 0 0-1.487 2.415 1.06 1.06 0 0 0-.233.21c-1.67 2.157-3.316 3.86-4.942 5.108-1.486 1.143-2.782 1.716-3.89 1.716-.737 0-1.194-.301-1.365-.909-.441-1.55.628-3.992 3.204-7.329.194.104.476.152.846.152.705 0 1.578-.202 2.623-.607 1.04-.404 1.83-.84 2.369-1.312 1.39-1.246 1.943-2.375 1.656-3.386-.242-.842-.864-1.263-1.87-1.263-1.174 0-2.654.605-4.441 1.818-1.786 1.213-3.288 2.628-4.506 4.244-1.756 2.326-2.441 4.514-2.06 6.572.334 1.65 1.348 2.558 3.04 2.728 1.692.168 3.517-.608 5.479-2.326a34.978 34.978 0 0 0 2.626-2.585c-.53 1.163-.918 2.231-1.144 3.192-.057.272.02.658.23 1.165.252.536.513.806.782.806 1.434-2.862 2.885-5.256 4.355-7.176 1.298-1.684 3.146-3.419 5.54-5.203 2.395-1.787 3.913-2.562 4.55-2.326.108.034.181.102.208.203.096.336-.374 1.112-1.404 2.323-1.386 1.618-2.145 2.545-2.28 2.78-2.005 3.098-3.215 5.576-3.628 7.428-.05.304.027.692.23 1.165.22.536.464.806.733.806 1.944-3.671 3.643-6.368 5.102-8.085 1.28-1.517 2.969-3.015 5.064-4.498 2.005-1.449 3.359-2.172 4.063-2.172.201 0 .331.1.388.304.105.37-.33 1.145-1.304 2.323-.78.91-1.564 1.819-2.343 2.73-1.537 1.918-2.544 3.455-3.022 4.598-.395.977-.472 1.886-.231 2.73.286 1.009.859 1.616 1.722 1.818 1.286.27 2.867-.42 4.746-2.072a30.41 30.41 0 0 0 2.323-2.251c-.297 1.05-.333 1.988-.101 2.808.277.975.987 1.465 2.127 1.465 1.108 0 2.642-.977 4.604-2.932.575-.571 1.017-1.077 1.33-1.516-.332 1.079-.385 2.006-.167 2.78.297 1.044 1.059 1.6 2.284 1.668.984.032 2.452-.943 4.403-2.932a65.835 65.835 0 0 0 1.543-1.63 17.256 17.256 0 0 0-.984 2.893c-.057.272.02.658.23 1.165.254.536.515.806.784.806 1.482-2.93 2.729-5.038 3.74-6.315.312.975 1.038 1.465 2.178 1.465 1.165-.034 2.377-.675 3.633-1.922-1.185 1.618-1.62 3.219-1.306 4.801.297 1.045 1.058 1.6 2.286 1.669.982.032 2.451-.943 4.403-2.932.345-.351.665-.69.976-1.018-.007.538.05 1.063.187 1.576.23.807.678 1.438 1.343 1.893.667.454 1.471.633 2.416.53 1.688-.201 3.437-1.128 5.25-2.779a32.807 32.807 0 0 0 3.134-3.292c-.806 1.726-1.276 3.165-1.388 4.303a2.22 2.22 0 0 0 .102.708c.249.875.622 1.313 1.128 1.313.825-2.055 1.517-3.57 2.079-4.546.623-.878 1.665-2.057 3.122-3.54.87-.839 1.517-1.446 1.95-1.82-.53 1.45-.794 3.12-.794 5.006.01 1.21.109 2.156.3 2.83.307 1.076.881 1.684 1.725 1.818 1.222.168 2.896-.79 5.02-2.882.373-.373.807-.844 1.277-1.368-.28 1.022-.311 1.933-.084 2.735.276.975.986 1.465 2.126 1.465 1.108 0 2.642-.977 4.604-2.932.575-.571 1.018-1.077 1.33-1.516-.332 1.079-.387 2.006-.167 2.78.297 1.044 1.059 1.6 2.284 1.668.984.032 2.452-.943 4.405-2.932.455-.466.872-.905 1.268-1.332-.295 1.047-.332 1.98-.1 2.799.277.975.986 1.465 2.128 1.465 1.107 0 2.64-.977 4.602-2.932.577-.571 1.021-1.077 1.331-1.516-.33 1.079-.386 2.006-.165 2.78.295 1.044 1.056 1.6 2.284 1.668.982.032 2.451-.943 4.402-2.932 1.587-1.616 2.806-2.999 3.654-4.142.21-.204.208-.388-.009-.56-.169-.131-.379-.097-.622.103m2.853-14.048c-.066-.235-.306-.253-.719-.052-1.332.506-3.221 1.535-5.667 3.084-.75-1.347-1.375-2.308-1.873-2.88-.226-.204-.408-.304-.541-.304-.2 0-.263.134-.187.404a43.425 43.425 0 0 1 1.71 4.6c.124.438.302.655.539.655.1 0 .315-.134.64-.403 1.783-1.515 3.814-3.05 6.091-4.6.286-.168.288-.336.007-.504M47.283 91.867c2.496-1.72 4.218-3.217 5.162-4.498.633-.84.87-1.55.706-2.123-.144-.504-.434-.758-.868-.758-.638 0-1.54.725-2.705 2.174-1.425 1.954-2.477 3.455-3.153 4.498-6.829 6.672-11.109 10.914-12.84 12.736-5.687 5.961-9.097 9.434-10.228 10.41-3.094 2.695-5.344 4.041-6.755 4.041-.937 0-1.517-.387-1.738-1.16-.325-1.148.046-2.964 1.117-5.46 1.349-3.165 3.517-6.636 6.506-10.41 3.654-4.616 7.852-8.86 12.589-12.735a88.077 88.077 0 0 1 2.56-1.97c.882.268 1.592.523 2.127.757.538.236.83.32.88.254.117-.17-.106-.421-.67-.76-.843-.37-1.558-.639-2.141-.808.167-.47 0-.708-.506-.708-.368 0-.713.086-1.035.254-4.431-1.077-8.78-1.567-13.046-1.467-7.796.204-13.892 2.242-18.295 6.115-2.067 1.82-3.504 4.144-4.31 6.975-.735 2.494-.836 4.85-.306 7.076 1.105 4.718 3.522 7.919 7.256 9.601.36.2.54.186.54-.052-.038-.133-.277-.32-.712-.555-3.138-1.952-5.195-4.884-6.17-8.794-.489-1.95-.314-4.058.522-6.316.896-2.392 2.396-4.496 4.495-6.317 2.368-2.054 5.159-3.688 8.371-4.903 3.007-1.111 5.988-1.718 8.945-1.817 4.19-.135 8.088.184 11.696.96-4.938 2.93-9.562 6.973-13.867 12.128-3.794 4.48-6.377 8.559-7.75 12.23-.96 2.525-1.226 4.547-.795 6.064.22.773.658 1.43 1.316 1.97.656.54 1.386.81 2.192.81 1.677 0 4.198-1.4 7.565-4.195 2.421-1.988 6.314-5.945 11.675-11.877a704.44 704.44 0 0 1 3.526-3.89l.208.201c-1.487 1.617-2.435 2.832-2.84 3.64-2.564 3.266-4.284 6.603-5.163 10.006-.327 1.211-.356 2.292-.087 3.233.306 1.079.763 1.567 1.371 1.468.093-.744.377-1.804.858-3.186 1.325-3.84 3.218-7.631 5.68-11.37 3.93-5.66 6.633-9.484 8.117-11.472m24.881 11.776c1.438-1.315 2.343-1.853 2.711-1.619.088.07.15.168.187.304.182.641-.322 1.584-1.51 2.831-1.564 1.583-3.035 2.374-4.41 2.374-.167 0-.306-.018-.416-.05.967-1.315 2.115-2.594 3.438-3.84m16.86-.708c-.287-1.01-.834-1.515-1.64-1.515-1.038 0-2.561.842-4.564 2.524-1.6 1.35-2.903 2.664-3.915 3.945 1.435-2.63 3.716-5.763 6.843-9.402a7.012 7.012 0 0 1 1.848-1.466c-.421-.066-.975 0-1.652.203-.758.404-1.334.742-1.728 1.011-2.216 1.887-4.657 4.75-7.322 8.59-1.613 2.323-2.704 3.772-3.56 4.924-.931.991-1.855 1.854-2.772 2.558-1.486 1.143-2.783 1.716-3.89 1.716-.737 0-1.195-.301-1.365-.909-.442-1.55.628-3.992 3.203-7.329.196.104.479.152.847.152.706 0 1.578-.202 2.622-.607 1.043-.404 1.833-.84 2.37-1.312 1.39-1.246 1.942-2.375 1.656-3.386-.24-.842-.863-1.263-1.87-1.263-1.174 0-2.654.605-4.44 1.818-1.788 1.213-3.289 2.628-4.508 4.244-1.024 1.358-1.672 2.667-1.969 3.934a154.299 154.299 0 0 0-1.736 1.98c-1.895 1.953-3.202 2.778-3.926 2.475-.189-.066-.304-.182-.352-.352-.125-.438.293-1.567 1.252-3.385 1.598-3 3.992-6.502 7.182-10.513-1.135-.101-1.995.068-2.575.504-1.595 1.113-3.431 3.22-5.503 6.318-2.774 3.235-4.183 4.888-4.23 4.954-1.895 1.952-3.204 2.777-3.928 2.474-.187-.066-.303-.182-.35-.352-.125-.438.293-1.567 1.251-3.385 1.598-3 3.992-6.502 7.182-10.513-1.135-.101-2.592.15-4.366.758-1.576.943-3.484 3.083-5.724 6.418-.678 1.045-1.772 2.51-3.282 4.396-1.946 2.122-3.32 3.017-4.122 2.678a.561.561 0 0 1-.365-.404c-.124-.436.282-1.549 1.215-3.333a35.709 35.709 0 0 1 1.929-3.133c-1.792-.406-3.174.335-4.15 2.222-.813 1.618-1.07 2.965-.762 4.044.276.975.986 1.465 2.126 1.465 1.106 0 2.642-.977 4.604-2.932 1.227-1.346 3.369-4.026 6.423-8.034.442-.574 1.046-.926 1.813-1.063-4.134 5.29-5.972 8.744-5.513 10.36.297 1.045 1.059 1.6 2.286 1.669.982.032 2.45-.943 4.401-2.932a28.64 28.64 0 0 0 1.898-2.173c-.54 1.28-.686 2.427-.432 3.436.297 1.045 1.058 1.6 2.286 1.669.982.032 2.45-.943 4.4-2.932.316-.32.604-.623.889-.925-.004.397.017.79.09 1.18.335 1.65 1.349 2.557 3.039 2.727 1.583.157 3.287-.524 5.107-2.019a32.12 32.12 0 0 0-1.098 1.962c-2.25 4.244-3.308 7.193-3.175 8.844.009.268.036.537.078.807.054.304.116.523.187.657.09.204.205.304.338.304.11.034.404-.523.884-1.667 2.515-5.794 3.873-7.574 8.3-13.84 1.488-2.09 3.286-4.146 5.396-6.166 2.307-2.156 3.945-3.233 4.92-3.233.303 0 .486.116.554.352.2.709-.819 2.679-3.055 5.914-2.065 2.997-3.593 4.978-4.577 5.938-.985.959-1.959 1.405-2.916 1.338-.446-.034-.823-.236-1.13-.606-.152-.304-.325-.438-.517-.404-.192.032-.222.218-.092.556.128.337.35.59.667.757.523.304 1.035.456 1.539.456 3.14.068 6.366-2.155 9.68-6.672.778-1.045 1.333-2.249 1.667-3.612.333-1.365.367-2.519.1-3.462" fill="#3D352C"/><path d="M164.288 137.767c-1.754 0-3.118-1.525-3.118-3.898 0-2.227 1.22-3.345 2.844-3.345 1.54 0 2.962 1.313 2.962 3.754 0 2.96-1.813 3.49-2.688 3.49m-.204-7.59c-2.69 0-3.838 2.33-3.838 3.979 0 1.831 1.11 3.996 3.779 3.996 2.348 0 3.885-1.881 3.885-4.16 0-2.369-1.637-3.814-3.826-3.814m-6.22 7.69a4.661 4.661 0 0 1-.378-.041c-.314-.05-.392-.325-.4-1.068-.03-1.903-.03-3.714-.03-5.615 0-.886-.049-.966-.145-.966-.12 0-.274.162-.635.62-.954 1.22-3.467 4.474-4.675 6.012l.02-5.28c.02-.864.088-.977.359-1.038.089-.02.137-.02.254-.03.107-.01.127-.041.127-.082 0-.04-.048-.061-.166-.061-.272 0-.663.032-.975.032-.156 0-.768-.032-1.07-.032-.11 0-.196 0-.196.071 0 .042.03.061.108.072.078.01.183.01.312.03.31.061.418.132.428 1.252.029 1.953 0 4.243 0 5.919 0 .409.029.489.127.489.05 0 .156-.052.359-.284.41-.468 4.483-5.738 4.988-6.399-.02 1.738-.009 3.437-.037 5.107-.011.763-.05 1.19-.333 1.25-.089.02-.194.031-.281.042-.126.009-.148.03-.148.082 0 .04.029.06.148.06.349 0 .662-.031.875-.031.157 0 1.012.032 1.364.032.107 0 .146-.01.146-.072 0-.03-.03-.062-.146-.071m-51.65 0c-.087 0-.3-.022-.438-.041-.291-.041-.35-.265-.38-.56-.048-.428-.048-1.23-.048-2.207v-1.792c0-1.584 0-1.87.02-2.195.019-.356.097-.529.36-.58.116-.02.175-.031.244-.031.038 0 .077-.021.077-.06 0-.062-.048-.083-.155-.083-.294 0-.907.032-.955.032-.048 0-.662-.032-1.102-.032-.106 0-.154.021-.154.082 0 .04.039.06.076.06.087 0 .255.012.333.031.32.072.398.236.418.58.02.326.02.612.02 2.196v.216c0 .05-.029.061-.06.061h-4.128c-.03 0-.059-.01-.059-.06v-.217c0-1.584 0-1.87.018-2.195.021-.356.098-.529.361-.58.118-.02.176-.031.244-.031.039 0 .078-.021.078-.06 0-.062-.05-.083-.156-.083-.292 0-.906.032-.954.032-.05 0-.663-.032-1.103-.032-.107 0-.155.021-.155.082 0 .04.04.06.079.06.087 0 .254.012.33.031.323.072.4.236.419.58.02.326.02.612.02 2.196v1.792c0 .977 0 1.779-.049 2.208-.039.294-.089.518-.28.559-.09.02-.207.04-.294.04-.06 0-.079.031-.079.062 0 .06.05.082.157.082.292 0 .905-.032.955-.032.048 0 .662.032 1.197.032.107 0 .157-.032.157-.082 0-.03-.02-.061-.078-.061-.088 0-.303-.022-.44-.041-.292-.041-.35-.265-.379-.56-.048-.428-.048-1.23-.048-2.207v-1.068c0-.052.029-.061.059-.061h4.129c.03 0 .058.02.058.06v1.069c0 .977 0 1.779-.048 2.208-.04.294-.087.518-.282.559-.09.02-.207.04-.292.04-.06 0-.078.031-.078.062 0 .06.048.082.154.082.294 0 .908-.032.956-.032.048 0 .661.032 1.199.032.106 0 .154-.032.154-.082 0-.03-.02-.061-.078-.061m39.305-3.224h-1.86c-.03 0-.049-.022-.03-.072l.856-2.747c.05-.152.098-.152.148 0l.925 2.747c.01.04.01.072-.04.072m2.904 3.224c-.078 0-.235-.01-.38-.063-.205-.06-.486-.223-.838-1.127-.595-1.548-2.123-5.748-2.269-6.134-.117-.316-.156-.366-.215-.366s-.098.059-.213.396l-2.211 6.317c-.177.509-.37.895-.819.955a1.91 1.91 0 0 1-.235.022c-.087 0-.135.02-.135.06 0 .061.057.083.183.083.46 0 .995-.032 1.102-.032.108 0 .498.032.732.032.086 0 .175-.022.175-.082 0-.041-.03-.061-.126-.061h-.09c-.165 0-.35-.091-.35-.295 0-.184.048-.429.137-.682l.584-1.8c.02-.05.048-.083.097-.083h2.096c.048 0 .068.022.085.063l.908 2.502c.057.161 0 .254-.06.273-.038.011-.067.03-.067.072 0 .06.105.06.292.071.672.022 1.382.022 1.528.022.109 0 .198-.022.198-.082 0-.052-.052-.061-.109-.061m-52.116-7.619c-.04 0-.128.03-.274.05-.157.03-.38.052-.692.052h-3.654c-.116 0-.486-.021-.769-.052-.263-.02-.359-.121-.427-.121-.039 0-.078.132-.097.191-.02.082-.216.958-.216 1.06 0 .06.02.09.05.09.037 0 .068-.02.096-.101.029-.072.059-.143.167-.315.155-.245.388-.316.993-.325.477-.01.964-.01 1.44-.021v4.303c0 .977 0 1.779-.047 2.208-.04.294-.087.518-.283.559-.087.02-.203.04-.292.04-.058 0-.078.031-.078.062 0 .06.05.082.157.082.291 0 .905-.032.955-.032.048 0 .662.032 1.197.032.107 0 .157-.032.157-.082 0-.03-.02-.061-.079-.061-.087 0-.302-.022-.44-.041-.29-.041-.35-.265-.378-.56-.05-.428-.05-1.23-.05-2.207v-4.303c.41.01.819.01 1.228.021.935.02 1.168.254 1.199.557 0 .043.009.072.009.115.01.14.03.173.078.173.039 0 .067-.043.067-.134 0-.11.03-.814.03-1.12 0-.059 0-.12-.047-.12m21 7.619c-.06 0-.266-.022-.4-.041-.292-.041-.351-.265-.381-.56-.048-.428-.048-1.23-.048-2.207v-1.792c0-1.584 0-1.87.02-2.195.019-.356.095-.529.36-.58.116-.02.175-.031.244-.031.037 0 .078-.021.078-.06 0-.062-.051-.083-.156-.083-.292 0-.908.032-.956.032-.05 0-.661-.032-.983-.032-.109 0-.157.021-.157.082 0 .04.04.06.078.06.068 0 .194.012.303.042.215.05.311.225.33.57.02.325.02.61.02 2.195v1.792c0 .977 0 1.779-.048 2.208-.04.294-.098.528-.292.568a1.246 1.246 0 0 1-.254.032c-.089 0-.107.03-.107.06 0 .061.048.083.155.083.294 0 .906-.032.955-.032.048 0 .673.032 1.208.032.109 0 .146-.032.146-.082 0-.03-.028-.061-.115-.061m20.007-7.549c-.448 0-1.012.032-1.228.032-.076 0-.661-.032-1.1-.032-.107 0-.157.021-.157.082 0 .04.04.06.078.06.089 0 .254.012.333.031.322.072.4.236.418.58.02.326.02.612.02 2.196v1.792c0 .977 0 1.779-.049 2.208-.039.294-.087.518-.283.559a1.49 1.49 0 0 1-.293.04c-.057 0-.078.031-.078.062 0 .06.051.082.156.082.294 0 .907-.032.936-.032.05 0 .663.032 1.199.032.107 0 .155-.032.155-.082 0-.03-.018-.061-.077-.061-.087 0-.302-.022-.44-.041-.293-.041-.35-.265-.378-.56-.05-.428-.05-1.23-.05-2.207v-4.18c0-.102.02-.173.078-.195.09-.04.255-.06.42-.06.224 0 .817-.042 1.334.509.518.55.545 1.23.545 1.484 0 1.068-.74 1.74-1.685 1.74-.203 0-.263.01-.263.093 0 .05.06.071.106.071.048.007.157.007.205.007 1.386 0 2.398-.973 2.398-2.297 0-.663-.272-1.12-.487-1.332-.155-.154-.595-.581-1.813-.581m-9.464 7.549a4.661 4.661 0 0 1-.379-.041c-.313-.05-.391-.325-.4-1.068-.029-1.903-.029-3.714-.029-5.615 0-.886-.05-.966-.147-.966-.118 0-.272.162-.633.62-.954 1.22-3.468 4.474-4.675 6.012l.02-5.28c.019-.864.088-.977.358-1.038.09-.02.137-.02.255-.03.107-.01.126-.041.126-.082 0-.04-.048-.061-.165-.061-.272 0-.664.032-.975.032-.157 0-.769-.032-1.071-.032-.109 0-.196 0-.196.071 0 .042.03.061.109.072.076.01.183.01.311.03.311.061.418.132.429 1.252.03 1.953 0 4.243 0 5.919 0 .409.03.489.126.489.05 0 .157-.052.36-.284.41-.468 4.482-5.738 4.988-6.399-.02 1.738-.01 3.437-.038 5.107-.01.763-.05 1.19-.332 1.25-.088.02-.194.031-.282.042-.126.009-.147.03-.147.082 0 .04.028.06.147.06.35 0 .662-.031.876-.031.156 0 1.012.032 1.364.032.107 0 .148-.01.148-.072 0-.03-.03-.062-.148-.071m-16.047-.152c-.381 0-.634-.06-.868-.173-.146-.072-.253-.236-.264-.51-.02-.478-.02-1.393-.02-2.421v-.65c0-.031.02-.05.04-.05.799-.022 1.403.09 1.802.426.526.436.711 1.008.711 1.719 0 1.14-.604 1.66-1.401 1.66m1.186-3.756c-.418-.234-.914-.377-2.035-.377h-.263c-.029 0-.04-.01-.04-.05v-.266c0-1.584 0-1.87.02-2.195.02-.356.098-.529.361-.58.118-.02.175-.031.244-.031.04 0 .078-.021.078-.06 0-.062-.05-.083-.156-.083-.294 0-.897.032-.945.032-.048 0-.633-.032-.955-.032-.107 0-.155.021-.155.082 0 .04.038.06.077.06.069 0 .195.012.302.042.215.05.313.225.33.57.02.325.02.61.02 2.195v1.792c0 .977 0 1.779-.048 2.208-.039.294-.078.537-.273.578-.097.022-.185.022-.262.022-.078 0-.117.03-.117.06 0 .061.048.083.156.083.292 0 .886-.032.934-.032.283 0 1.003.06 1.393.06 1.667 0 2.407-1.24 2.407-2.216 0-.876-.41-1.485-1.073-1.862m10.859-4.405c.836 0 1.615-.427 2.074-1.129.058-.08.048-.151.01-.151-.04 0-.051 0-.128.09-.409.519-.866.753-1.578.753-.935 0-1.403-.449-1.472-.793-.01-.05-.027-.061-.057-.061-.048 0-.225.153-.322.296a.273.273 0 0 0-.048.141c0 .152.108.326.302.488.37.284.827.366 1.219.366m30.013 0c.838 0 1.617-.427 2.076-1.129.059-.08.048-.151.01-.151-.04 0-.05 0-.129.09-.407.519-.866.753-1.576.753-.936 0-1.404-.449-1.473-.793-.007-.05-.027-.061-.057-.061-.048 0-.224.153-.32.296a.263.263 0 0 0-.05.141c0 .152.107.326.302.488.37.284.828.366 1.217.366m-97.268 8.312a1.21 1.21 0 0 1-.281-.032c-.468-.091-.81-.315-1.609-1.097a98.726 98.726 0 0 1-2.844-3.031c.254-.297 1.364-1.445 2.222-2.31.583-.591.768-.713 1.012-.815.137-.06.313-.1.498-.121.087-.01.107-.03.107-.072 0-.039-.03-.071-.166-.071-.156 0-.73.032-1.033.032-.331 0-.303-.032-.584-.032-.087 0-.145.021-.145.06 0 .042.017.062.087.094.078.03.126.11.126.193 0 .121-.04.223-.623.853-.594.642-1.92 2.098-2.221 2.403v-.654c0-1.584 0-1.87.02-2.195.019-.356.097-.561.36-.59l.215-.021c.086-.01.105-.03.105-.072 0-.05-.048-.071-.154-.071-.294 0-.906.032-.956.032-.048 0-.7-.032-1.022-.032-.107 0-.155.021-.155.082 0 .04.028.06.106.06.068 0 .244.012.35.042.216.05.312.225.332.57.02.325.02.61.02 2.195v1.792c0 .977 0 1.779-.049 2.208-.039.294-.097.528-.291.568a1.246 1.246 0 0 1-.253.032c-.089 0-.109.041-.109.071 0 .061.049.072.155.072.294 0 .868-.032.916-.032.05 0 .662.032 1.198.032.108 0 .147-.022.147-.072 0-.03-.03-.071-.115-.071-.06 0-.257-.022-.392-.041-.291-.041-.35-.265-.38-.56-.048-.428-.048-1.23-.048-2.207v-1.049c.857 1.069 2.611 3.033 3.194 3.51.46.377.684.49 1.53.49h.72c.107 0 .147-.022.147-.072 0-.051-.06-.071-.137-.071m7.71-7.549c-.186 0-.634.032-.895.032-.225 0-.42-.021-.596-.021-.107 0-.155.01-.155.05s.048.082.146.103c.117.02.165.08.165.163 0 .132-.087.386-.194.629-.448.998-1.21 2.604-1.773 3.785-.205-.377-1.861-3.621-2.066-4.02-.087-.17-.165-.323-.165-.405 0-.082.098-.152.263-.173.127-.021.146-.05.146-.093 0-.029-.039-.05-.137-.05-.311 0-.788.032-.895.032-.282 0-.722-.032-1.014-.032-.117 0-.145.032-.145.06 0 .042.039.072.117.083.564.041.651.173 1.012.823.429.744 2.057 3.866 2.368 4.518.048.11.057.163.009.264a8.64 8.64 0 0 1-.477.906c-.4.65-.712.854-1.169.895-.137.009-.195.009-.243.009-.098 0-.146.032-.146.073 0 .06.058.07.154.07.43 0 1.472-.01 1.57-.03.039-.011.058-.031.067-.102.048-.276.302-.794.44-1.099a452.94 452.94 0 0 1 2.657-5.564c.206-.427.322-.59.596-.692.087-.03.205-.05.35-.071.098-.01.155-.03.155-.082 0-.04-.037-.061-.146-.061m12.933 7.447c-1.754 0-3.117-1.525-3.117-3.898 0-2.227 1.219-3.345 2.845-3.345 1.539 0 2.96 1.313 2.96 3.754 0 2.96-1.811 3.49-2.688 3.49m-.205-7.59c-2.687 0-3.837 2.33-3.837 3.979 0 1.831 1.11 3.996 3.779 3.996 2.348 0 3.887-1.881 3.887-4.16 0-2.369-1.637-3.814-3.829-3.814m-8.517.141c-.448 0-1.012.032-1.227.032-.077 0-.662-.032-1.1-.032-.106 0-.156.021-.156.082 0 .04.039.06.078.06.087 0 .254.012.33.031.323.072.401.236.419.58.02.326.02.612.02 2.196v1.792c0 .977 0 1.779-.049 2.208-.039.294-.087.518-.282.559a1.49 1.49 0 0 1-.292.04c-.059 0-.078.031-.078.062 0 .06.05.082.156.082.292 0 .906-.032.934-.032.05 0 .664.032 1.199.032.107 0 .157-.032.157-.082 0-.03-.022-.061-.079-.061-.087 0-.302-.022-.437-.041-.294-.041-.353-.265-.381-.56-.048-.428-.048-1.23-.048-2.207v-4.18c0-.102.02-.173.076-.195.09-.04.255-.06.42-.06.224 0 .819-.042 1.334.509.516.55.547 1.23.547 1.484 0 1.068-.742 1.74-1.687 1.74-.204 0-.261.01-.261.093 0 .05.057.071.106.071.048.007.155.007.203.007 1.384 0 2.398-.973 2.398-2.297 0-.663-.274-1.12-.487-1.332-.157-.154-.594-.581-1.813-.581m17.366 0c-.449 0-1.013.032-1.228.032-.076 0-.662-.032-1.1-.032-.106 0-.156.021-.156.082 0 .04.04.06.079.06.087 0 .252.012.33.031.322.072.4.236.42.58.018.326.018.612.018 2.196v1.792c0 .977 0 1.779-.046 2.208-.041.294-.09.518-.285.559a1.49 1.49 0 0 1-.292.04c-.058 0-.078.031-.078.062 0 .06.05.082.157.082.291 0 .907-.032.935-.032.048 0 .662.032 1.2.032.106 0 .154-.032.154-.082 0-.03-.02-.061-.078-.061-.087 0-.3-.022-.438-.041-.293-.041-.352-.265-.38-.56-.048-.428-.048-1.23-.048-2.207v-4.18c0-.102.02-.173.076-.195.089-.04.254-.06.42-.06.224 0 .818-.042 1.334.509.516.55.546 1.23.546 1.484 0 1.068-.74 1.74-1.686 1.74-.203 0-.262.01-.262.093 0 .05.059.071.107.071.048.007.155.007.205.007 1.384 0 2.396-.973 2.396-2.297 0-.663-.272-1.12-.488-1.332-.154-.154-.594-.581-1.812-.581m92.168 7.549c-.087 0-.302-.022-.44-.041-.291-.041-.348-.265-.378-.56-.048-.428-.048-1.23-.048-2.207v-1.792c0-1.584 0-1.87.02-2.195.019-.356.095-.529.359-.58.117-.02.176-.031.245-.031.038 0 .078-.021.078-.06 0-.062-.051-.083-.156-.083-.294 0-.907.032-.955.032-.05 0-.662-.032-1.103-.032-.105 0-.153.021-.153.082 0 .04.037.06.076.06.087 0 .255.012.333.031.322.072.398.236.416.58.021.326.021.612.021 2.196v.216c0 .05-.028.061-.058.061h-4.13c-.03 0-.06-.01-.06-.06v-.217c0-1.584 0-1.87.02-2.195.02-.356.098-.529.361-.58.118-.02.176-.031.244-.031.037 0 .078-.021.078-.06 0-.062-.048-.083-.156-.083-.292 0-.908.032-.956.032-.048 0-.661-.032-1.099-.032-.109 0-.157.021-.157.082 0 .04.038.06.079.06.087 0 .252.012.33.031.323.072.4.236.42.58.018.326.018.612.018 2.196v1.792c0 .977 0 1.779-.048 2.208-.039.294-.087.518-.283.559a1.49 1.49 0 0 1-.291.04c-.06 0-.079.031-.079.062 0 .06.048.082.157.082.292 0 .905-.032.953-.032.048 0 .664.032 1.2.032.106 0 .156-.032.156-.082 0-.03-.02-.061-.078-.061-.088 0-.303-.022-.438-.041-.292-.041-.352-.265-.38-.56-.05-.428-.05-1.23-.05-2.207v-1.068c0-.052.03-.061.058-.061h4.13c.031 0 .06.02.06.06v1.069c0 .977 0 1.779-.049 2.208-.04.294-.088.518-.282.559a1.51 1.51 0 0 1-.292.04c-.06 0-.078.031-.078.062 0 .06.048.082.154.082.294 0 .906-.032.956-.032.048 0 .661.032 1.197.032.107 0 .156-.032.156-.082 0-.03-.017-.061-.078-.061" fill="#4AAC9E"/><g transform="translate(80.05 60.734)" fill="#4AAC9E"><use stroke="#4AAC9E" mask="url(#b)" stroke-width="10" xlink:href="#a"/><path d="M28.512 18.25a1.845 1.845 0 0 1 .86-.13c.313.024.586.115.825.272.238.156.414.363.534.618.113.26.16.541.135.849-.04.47-.224.843-.552 1.114-.332.272-.733.388-1.206.347a1.723 1.723 0 0 1-.823-.272 1.498 1.498 0 0 1-.53-.618 1.701 1.701 0 0 1-.138-.846c.025-.31.118-.581.27-.813.156-.234.364-.406.625-.522z"/></g><g fill="#4AAC9E"><path d="M120.23.978c-3.363.668.527 5.067-5.903 3.59 3.632-.475.432-5.195 5.902-3.59M124.376 1.903c-3.414.31-.004 5.096-6.246 2.95 3.663-.088.971-5.12 6.246-2.95M128.403 3.258c-3.426-.049-.534 5.067-6.518 2.279 3.652.295 1.498-4.991 6.518-2.28M132.268 5.027c-3.401-.409-1.059 4.984-6.719 1.583 3.6.677 2.008-4.805 6.719-1.583M135.927 7.194c-3.341-.763-1.571 4.844-6.847.868 3.511 1.052 2.499-4.568 6.847-.868M139.34 9.732c-3.243-1.11-2.065 4.653-6.9.145 3.381 1.414 2.96-4.28 6.9-.145M142.47 12.614c-3.109-1.444-2.538 4.412-6.875-.579 3.215 1.761 3.389-3.948 6.876.579M145.285 15.81c-2.943-1.762-2.985 4.12-6.78-1.3 3.016 2.09 3.782-3.568 6.78 1.3M147.75 19.283c-2.743-2.062-3.396 3.785-6.607-2.003 2.782 2.394 4.133-3.152 6.607 2.003M149.841 22.996c-2.513-2.339-3.773 3.408-6.363-2.685 2.517 2.672 4.439-2.703 6.363 2.685M151.534 26.908c-2.258-2.588-4.108 2.994-6.049-3.338 2.226 2.922 4.695-2.22 6.049 3.338M152.809 30.977c-1.973-2.812-4.396 2.545-5.668-3.955 1.91 3.14 4.901-1.717 5.668 3.955M153.655 35.157c-1.669-3.005-4.636 2.07-5.225-4.528 1.573 3.322 5.054-1.193 5.225 4.528M154.061 39.402c-1.35-3.162-4.828 1.572-4.725-5.051 1.217 3.47 5.149-.656 4.725 5.051M154.023 43.668c-1.012-3.287-4.965 1.058-4.175-5.52.85 3.578 5.19-.11 4.175 5.52M153.54 47.906c-.665-3.376-5.047.53-3.576-5.929.472 3.65 5.172.435 3.576 5.93M152.62 52.07c-.31-3.427-5.076-.002-2.94-6.27.09 3.677 5.099.975 2.94 6.27M151.27 56.114c.048-3.439-5.047-.534-2.269-6.545-.293 3.667 4.969 1.506 2.269 6.545M149.508 59.995c.407-3.415-4.963-1.06-1.578-6.747-.672 3.618 4.787 2.019 1.578 6.747M75.501 55.426c2.258 2.588 4.108-2.994 6.048 3.338-2.225-2.922-4.696 2.22-6.048-3.338M74.225 51.358c1.975 2.811 4.396-2.546 5.668 3.954-1.909-3.14-4.901 1.715-5.668-3.954M73.38 47.177c1.67 3.003 4.636-2.07 5.225 4.528-1.573-3.324-5.054 1.192-5.225-4.528M72.974 42.93c1.349 3.164 4.827-1.572 4.725 5.052-1.218-3.47-5.15.656-4.725-5.052M73.012 38.666c1.012 3.287 4.965-1.057 4.173 5.52-.848-3.58-5.189.11-4.173-5.52M73.495 34.428c.665 3.376 5.046-.53 3.575 5.927-.471-3.648-5.173-.432-3.575-5.927M74.415 30.264c.31 3.426 5.076.002 2.94 6.27-.09-3.676-5.1-.974-2.94-6.27M75.764 26.22c-.048 3.438 5.047.534 2.27 6.544.294-3.667-4.97-1.505-2.27-6.545M77.527 22.338c-.408 3.417 4.965 1.061 1.576 6.747.674-3.616-4.785-2.019-1.576-6.747M79.684 18.663c-.76 3.355 4.827 1.578.865 6.878 1.048-3.528-4.549-2.51-.865-6.878M82.212 15.236c-1.105 3.256 4.634 2.075.146 6.929 1.407-3.396-4.264-2.973-.146-6.93M85.083 12.092c-1.438 3.124 4.394 2.551-.577 6.906 1.754-3.23-3.931-3.403.577-6.906M88.265 9.267c-1.754 2.955 4.104 2.997-1.293 6.808 2.08-3.028-3.554-3.798 1.293-6.808M91.724 6.792c-2.053 2.754 3.77 3.412-1.994 6.634 2.384-2.794-3.14-4.15 1.994-6.634M95.422 4.692c-2.329 2.524 3.394 3.789-2.674 6.39 2.661-2.53-2.691-4.459 2.674-6.39M99.317 2.992c-2.579 2.267 2.982 4.125-3.324 6.074 2.91-2.235-2.211-4.716 3.324-6.074M103.37 1.712c-2.8 1.983 2.534 4.414-3.939 5.691 3.127-1.918-1.71-4.921 3.938-5.691M107.532.862c-2.99 1.678 2.062 4.656-4.51 5.247 3.31-1.58-1.186-5.075 4.51-5.247M111.76.455c-3.148 1.354 1.566 4.846-5.03 4.744 3.456-1.223-.653-5.17 5.03-4.744M116.008.493c-3.274 1.017 1.053 4.986-5.497 4.191 3.563-.854-.11-5.21 5.497-4.19M124.034 23.09c.076.355.332.488.54.622 1.07.68 1.4 1.679 1.393 3.054-.046 8.35-.025 16.7-.023 25.051 0 .36.002.722.023 1.08.09 1.566 1.286 2.466 2.637 2.01.501-.168.642-.47.321-.945-.546-.81-.68-1.747-.704-2.72-.219-8.228-.148-16.457-.048-24.687.021-1.743.913-3.036 2.37-3.642.362-.152.773-.202 1.179-.57-1.366-.066-2.572.084-3.693.802-1.117.717-2.26.822-3.414.074-.156-.102-.318-.261-.581-.13zm-19.455 25.776c-.016-.187-.032-.28-.032-.373-.08-7.147.011-14.296.08-21.443.016-1.572.253-3.092 1.657-3.967.128-.08.266-.218.2-.406-.062-.175-.232-.178-.387-.19-.5-.04-.99.019-1.45.231-.81.37-1.578.831-2.517.64-.397-.08-.65.262-.34.677.5.671.525 1.434.527 2.238.033 8.424-.087 16.848.009 25.273.016 1.38.553 2.343 1.569 3.008.907.595 1.93.648 2.983.716-.137-.28-.358-.275-.525-.354-1.014-.478-1.649-1.357-1.813-2.527-.119-.863-.341-1.46-1.149-1.576 4.588-4.926 9.108-9.857 13.305-15.144-.048-.052-.098-.105-.145-.159L104.58 48.866zm.344-.979c.286-.032.38-.243.512-.386 6.043-6.527 11.794-13.383 17.718-20.042.213-.24.308-.47.29-.822-.098-1.873-.783-2.918-2.366-3.52a7.93 7.93 0 0 0-1.94-.477c-.32-.036-.374-.215-.38-.524-.007-.373.2-.355.422-.355 4.545.002 9.09.002 13.637-.004.25 0 .398.049.388.392-.01.287-.07.457-.352.468-.54.02-1.062.153-1.58.3-1.656.464-2.44 1.466-2.572 3.378a54.197 54.197 0 0 0-.132 3.606c-.013 6.477-.01 12.954 0 19.431.002.89.057 1.781.133 2.667.125 1.456.785 2.442 2.066 2.89.782.274 1.578.438 2.387.538.299.036.47.1.468.5-.004.426-.235.376-.472.376-4.61 0-9.22.001-13.829-.002-.222 0-.484.085-.5-.35-.012-.37.105-.497.43-.534.467-.056.93-.172 1.388-.288 1.995-.502 2.79-1.558 2.882-3.858.038-.938.034-1.878.034-2.816-.002-5.61-.007-11.221-.01-16.832v-.838c-.296.05-.428.286-.586.452-4.3 4.534-8.409 9.282-12.577 13.965a312.408 312.408 0 0 1-5.022 5.495c-.306.33-.373.654-.32 1.086.272 2.21 1.124 3.07 3.476 3.49.36.065.72.131 1.084.158.275.023.423.096.425.46 0 .392-.178.415-.443.415-4.654-.005-9.306-.003-13.958-.002-.236 0-.414-.009-.405-.371.005-.318.08-.463.386-.513a13.133 13.133 0 0 0 1.821-.423c1.667-.533 2.365-1.535 2.448-3.482.144-3.369.098-6.741.093-10.112-.007-4.72.023-9.439-.1-14.156-.012-.48-.062-.96-.12-1.437-.166-1.323-.855-2.161-1.958-2.602a8.946 8.946 0 0 0-2.25-.565c-.333-.04-.432-.18-.423-.54.009-.383.226-.34.437-.34 4.524-.002 9.048 0 13.572-.004.25 0 .462-.009.458.397-.003.357-.152.45-.43.47-.6.046-1.187.182-1.765.362-1.318.41-2.06 1.383-2.26 2.896-.198 1.482-.182 2.977-.19 4.467-.024 5.684-.012 11.366-.015 17.049v.487z"/></g></g></svg>