<svg width="60" height="24" viewBox="0 0 60 24" xmlns="http://www.w3.org/2000/svg"><title>0F00012A-D388-492F-85A4-16E31397D5F5</title><path d="M58.858 0H1.142C.512 0 0 .512 0 1.143v21.714C0 23.488.511 24 1.142 24h57.716c.63 0 1.142-.512 1.142-1.143V1.143C60 .512 59.489 0 58.858 0zM18.376 20.14H6.85V3.854h3.408v13.36h8.12v2.926zm2.01-2.926h3.375v2.926h-3.376v-2.926zm0-13.354h3.375v10.937h-3.376V3.86zm18.998 2.883h-8.22v3.743h7.206v2.828H31.16v6.826h-3.376V3.883h11.6v2.86zM54.17 20.14H41.838V3.854h11.926v2.889H45.16V10.2h7.9v2.829h-7.9v4.185h9.004v2.926h.006z" fill="#D0021B" fill-rule="evenodd"/></svg>