<svg xmlns="http://www.w3.org/2000/svg" width="12" height="19" viewBox="0 0 12 19">
    <path fill="#FFF" fill-rule="evenodd" d="M6.87 9.23c2.171-.468 4.162-2.626 3.522-5.3C9.89 1.842 7.588-.199 4.77.561c-6.149 1.662-3.662 9.912 2.1 8.668zm-1.6-6.458c1.39-.375 2.505.554 2.789 1.57C8.422 5.647 7.466 6.737 6.44 7c-2.912.747-4.16-3.43-1.17-4.227zm3.808 7.163c.408-.229.748-.607 1.366-.576.832.044 2.514 1.404-.444 2.824-1.625.777-1.7.558-2.972.926.22.411 2.55 2.453 3.213 3.082 1.103 1.045.165 2.233-.966 2.114-.718-.076-2.972-2.351-3.38-2.819-.92.438-2.542 2.673-3.432 2.81-1.175.182-2.155-1.091-.96-2.19l3.175-2.976c-.287-.145-1.171-.262-1.59-.389-4.63-1.412-2.98-3.503-1.654-3.378.477.046.906.42 1.274.621 1.93 1.05 4.463 1.029 6.37-.049z"/>
</svg>
