<svg xmlns="http://www.w3.org/2000/svg" width="20" height="16" viewBox="0 0 20 16">
    <path fill="#FFF" fill-rule="evenodd" d="M.811 13.717a11.25 11.25 0 0 0 5.976 1.704c7.17 0 11.091-5.78 11.091-10.79 0-.165-.004-.327-.011-.49a7.79 7.79 0 0 0 1.944-1.963 7.875 7.875 0 0 1-2.238.595A3.822 3.822 0 0 0 19.287.677a7.963 7.963 0 0 1-2.476.919A3.946 3.946 0 0 0 13.966.4c-2.153 0-3.899 1.696-3.899 3.79 0 .298.035.587.102.865a11.166 11.166 0 0 1-8.034-3.962 3.701 3.701 0 0 0-.529 1.906c0 1.316.688 2.477 1.734 3.157a3.939 3.939 0 0 1-1.766-.474v.048c0 1.836 1.345 3.37 3.127 3.718-.326.088-.671.133-1.026.133-.252 0-.496-.023-.734-.068.495 1.508 1.935 2.604 3.64 2.633a7.95 7.95 0 0 1-4.84 1.623c-.314 0-.624-.015-.93-.052"/>
</svg>
