<svg xmlns="http://www.w3.org/2000/svg" width="25" height="14" viewBox="0 0 25 14">
    <path fill="#FFF" fill-rule="evenodd" d="M12.31 13.381h1.435s.433-.045.654-.273c.205-.21.198-.602.198-.602s-.028-1.838.865-2.11c.88-.267 2.012 1.777 3.21 2.563.907.596 1.596.465 1.596.465l3.205-.043s1.676-.099.881-1.357c-.065-.103-.464-.932-2.383-2.635-2.01-1.781-1.74-1.493.68-4.576 1.474-1.876 2.064-3.023 1.88-3.513-.176-.468-1.26-.344-1.26-.344l-3.61.02s-.267-.034-.465.08c-.194.11-.318.37-.318.37s-.572 1.452-1.333 2.687c-1.607 2.607-2.25 2.744-2.513 2.582-.61-.377-.458-1.514-.458-2.323 0-2.527.402-3.58-.78-3.853-.393-.09-.682-.15-1.685-.16C10.82.348 9.732.364 9.115.653c-.411.192-.728.62-.535.645.238.03.779.139 1.065.511.37.481.357 1.56.357 1.56s.213 2.974-.497 3.343c-.486.253-1.153-.263-2.586-2.629-.734-1.21-1.288-2.55-1.288-2.55s-.107-.25-.297-.384C5.102.986 4.779.934 4.779.934L1.35.956s-.514.013-.702.227c-.17.19-.014.584-.014.584s2.685 6 5.724 9.024c2.788 2.772 5.953 2.59 5.953 2.59"/>
</svg>
